<svg xmlns="http://www.w3.org/2000/svg" xmlns:xlink="http://www.w3.org/1999/xlink" viewBox="0,0,256,256" width="64px" height="64px" fill-rule="nonzero"><defs><linearGradient x1="32" y1="11.352" x2="32" y2="17.956" gradientUnits="userSpaceOnUse" id="color-1"><stop offset="0" stop-color="#0dbb5f"></stop><stop offset="1" stop-color="#faef17"></stop></linearGradient><linearGradient x1="25.025" y1="36.969" x2="25.025" y2="42.002" gradientUnits="userSpaceOnUse" id="color-2"><stop offset="0" stop-color="#0dbb5f"></stop><stop offset="1" stop-color="#faef17"></stop></linearGradient><linearGradient x1="38.975" y1="36.969" x2="38.975" y2="42.002" gradientUnits="userSpaceOnUse" id="color-3"><stop offset="0" stop-color="#0dbb5f"></stop><stop offset="1" stop-color="#faef17"></stop></linearGradient><linearGradient x1="32" y1="6.852" x2="32" y2="57.409" gradientUnits="userSpaceOnUse" id="color-4"><stop offset="0" stop-color="#faef17"></stop><stop offset="1" stop-color="#0dbb5f"></stop></linearGradient><linearGradient x1="39" y1="6.852" x2="39" y2="57.409" gradientUnits="userSpaceOnUse" id="color-5"><stop offset="0" stop-color="#faef17"></stop><stop offset="1" stop-color="#0dbb5f"></stop></linearGradient><linearGradient x1="25" y1="6.852" x2="25" y2="57.409" gradientUnits="userSpaceOnUse" id="color-6"><stop offset="0" stop-color="#faef17"></stop><stop offset="1" stop-color="#0dbb5f"></stop></linearGradient><linearGradient x1="32" y1="6.852" x2="32" y2="57.409" gradientUnits="userSpaceOnUse" id="color-7"><stop offset="0" stop-color="#faef17"></stop><stop offset="1" stop-color="#0dbb5f"></stop></linearGradient><linearGradient x1="32" y1="45.394" x2="32" y2="51.874" gradientUnits="userSpaceOnUse" id="color-8"><stop offset="0" stop-color="#0dbb5f"></stop><stop offset="1" stop-color="#faef17"></stop></linearGradient></defs><g fill="none" fill-rule="nonzero" stroke="none" stroke-width="1" stroke-linecap="butt" stroke-linejoin="miter" stroke-miterlimit="10" stroke-dasharray="" stroke-dashoffset="0" font-family="none" font-weight="none" font-size="none" text-anchor="none" style="mix-blend-mode: normal"><g transform="scale(4,4)"><path d="M36,11.5v7c0,0.276 -0.224,0.5 -0.5,0.5h-1c-0.276,0 -0.5,-0.224 -0.5,-0.5v-3.26l-1.17,1.741c-0.396,0.59 -1.264,0.59 -1.66,0l-1.17,-1.741v3.26c0,0.276 -0.224,0.5 -0.5,0.5h-1c-0.276,0 -0.5,-0.224 -0.5,-0.5v-7c0,-0.276 0.224,-0.5 0.5,-0.5h1.231c0.168,0 0.324,0.084 0.417,0.224l1.852,2.8l1.852,-2.799c0.092,-0.141 0.249,-0.225 0.417,-0.225h1.231c0.276,0 0.5,0.224 0.5,0.5z" fill="url(#color-1)"></path><path d="M25.025,37c-1.657,0 -3,1.343 -3,3c0,1.657 1.343,3 3,3c1.657,0 3,-1.343 3,-3c0,-1.657 -1.343,-3 -3,-3z" fill="url(#color-2)"></path><path d="M38.975,37c-1.657,0 -3,1.343 -3,3c0,1.657 1.343,3 3,3c1.657,0 3,-1.343 3,-3c0,-1.657 -1.343,-3 -3,-3z" fill="url(#color-3)"></path><g><path d="M51.893,35.747c0.682,-0.718 1.107,-1.682 1.107,-2.747v-6c0,-11.58 -9.42,-21 -21,-21c-5.61,0 -10.884,2.185 -14.85,6.152c-3.966,3.966 -6.15,9.239 -6.15,14.847v0.001v6c0,1.065 0.425,2.029 1.107,2.747c-1.85,1.023 -3.107,2.993 -3.107,5.253c0,3.309 2.691,6 6,6h0.417c2.736,6.458 9.139,11 16.583,11c7.444,0 13.847,-4.542 16.583,-11h0.417c3.309,0 6,-2.691 6,-6c0,-2.26 -1.257,-4.23 -3.107,-5.253zM18.564,13.566c3.589,-3.589 8.36,-5.566 13.436,-5.566c10.477,0 19,8.523 19,19c0,0.125 -0.015,0.246 -0.037,0.365c-4.743,-3.421 -11.568,-5.365 -18.963,-5.365c-7.395,0 -14.22,1.944 -18.963,5.364c-0.022,-0.117 -0.037,-0.238 -0.037,-0.362c0,-5.075 1.975,-9.847 5.564,-13.436zM49.642,28.885c-0.203,0.069 -0.416,0.115 -0.642,0.115h-1h-33h-0.001h-0.001c-0.225,0 -0.438,-0.046 -0.64,-0.115c4.368,-3.074 10.843,-4.885 17.642,-4.885c6.8,0 13.274,1.811 17.642,4.885zM11,41c0,-1.858 1.28,-3.411 3,-3.858v2.858c0,1.726 0.258,3.39 0.714,4.971c-2.07,-0.15 -3.714,-1.863 -3.714,-3.971zM15,35c-1.103,0 -2,-0.897 -2,-2v-2.556c0.59,0.344 1.267,0.556 1.998,0.556h0.002h2v2c0,1.103 -0.897,2 -2,2zM48,40c0,8.822 -7.178,16 -16,16c-8.822,0 -16,-7.178 -16,-16v-3.142c1.72,-0.447 3,-2 3,-3.858v-2h26v2c0,1.858 1.28,3.411 3,3.858zM47,33v-2h1h1c0.732,0 1.409,-0.212 2,-0.556v2.556c0,1.103 -0.897,2 -2,2c-1.103,0 -2,-0.897 -2,-2zM49.286,44.971c0.456,-1.581 0.714,-3.245 0.714,-4.971v-2.858c1.72,0.447 3,2 3,3.858c0,2.108 -1.644,3.821 -3.714,3.971z" fill="url(#color-4)"></path><rect x="36" y="33" width="6" height="2" fill="url(#color-5)"></rect><rect x="22" y="33" width="6" height="2" fill="url(#color-6)"></rect><path d="M32,39c-3.309,0 -6,2.243 -6,5c0,2.757 2.691,5 6,5c3.309,0 6,-2.243 6,-5c0,-2.757 -2.691,-5 -6,-5zM32,47c-2.206,0 -4,-1.346 -4,-3c0,-1.654 1.794,-3 4,-3c2.206,0 4,1.346 4,3c0,1.654 -1.794,3 -4,3z" fill="url(#color-7)"></path></g><path d="M45.343,45h-7.464c-0.242,0.988 -0.835,1.87 -1.664,2.553c-0.254,0.209 -0.534,0.397 -0.829,0.567c-0.023,0.013 -0.045,0.029 -0.068,0.042c-0.952,0.528 -2.092,0.838 -3.318,0.838c-1.548,0 -2.955,-0.497 -4.02,-1.302c-0.929,-0.701 -1.599,-1.637 -1.859,-2.698h-7.464c-1.467,0 -2.657,1.19 -2.657,2.657c0,1.846 1.497,3.343 3.343,3.343h0.131c0.953,0 1.808,-0.404 2.417,-1.043c0.576,1.204 1.796,2.043 3.221,2.043c1.202,0 2.26,-0.598 2.91,-1.507c0.304,1.983 2.002,3.507 4.07,3.507c2,0 3.667,-1.421 4.049,-3.308c0.657,0.792 1.637,1.308 2.747,1.308c1.425,0 2.645,-0.839 3.222,-2.043c0.609,0.639 1.463,1.043 2.417,1.043h0.131c1.845,0 3.342,-1.497 3.342,-3.343c0,-1.467 -1.19,-2.657 -2.657,-2.657z" fill="url(#color-8)"></path></g></g></svg>