<svg xmlns="http://www.w3.org/2000/svg" xmlns:xlink="http://www.w3.org/1999/xlink" viewBox="0,0,256,256" width="64px" height="64px" fill-rule="nonzero"><defs><linearGradient x1="32" y1="18.234" x2="32" y2="21.256" gradientUnits="userSpaceOnUse" id="color-1"><stop offset="0" stop-color="#0dbb5f"></stop><stop offset="1" stop-color="#faef17"></stop></linearGradient><linearGradient x1="32" y1="46.333" x2="32" y2="51.351" gradientUnits="userSpaceOnUse" id="color-2"><stop offset="0" stop-color="#0dbb5f"></stop><stop offset="1" stop-color="#faef17"></stop></linearGradient><linearGradient x1="32" y1="6.574" x2="32" y2="56.623" gradientUnits="userSpaceOnUse" id="color-3"><stop offset="0" stop-color="#faef17" stop-opacity="0.83922"></stop><stop offset="1" stop-color="#0dbb5f"></stop></linearGradient></defs><g fill="none" fill-rule="nonzero" stroke="none" stroke-width="1" stroke-linecap="butt" stroke-linejoin="miter" stroke-miterlimit="10" stroke-dasharray="" stroke-dashoffset="0" font-family="none" font-weight="none" font-size="none" text-anchor="none" style="mix-blend-mode: normal"><g transform="scale(4,4)"><rect x="15" y="18" width="34" height="4" fill="url(#color-1)"></rect><path d="M28,47c0,2.209 1.791,4 4,4c2.209,0 4,-1.791 4,-4z" fill="url(#color-2)"></path><path d="M49,32.034v-4.034h2.046c1.629,0 2.954,-1.325 2.954,-3.046c0,-1.629 -1.325,-2.954 -2.954,-2.954h-1.046v-9c0,-3.86 -3.14,-7 -7,-7h-22c-3.86,0 -7,3.14 -7,7v9h-1.046c-1.629,0 -2.954,1.325 -2.954,3.046c0,1.629 1.325,2.954 2.954,2.954h2.046v4.034c-2.807,0.3 -5,2.636 -5,5.466c0,2.871 2.258,5.232 5.125,5.476c0.983,8.445 8.17,15.024 16.875,15.024c8.705,0 15.892,-6.579 16.875,-15.024c2.867,-0.244 5.125,-2.605 5.125,-5.476c0,-2.83 -2.193,-5.166 -5,-5.466zM16,13c0,-2.757 2.243,-5 5,-5h22c2.757,0 5,2.243 5,5v9h-32zM12.954,26c-0.526,0 -0.954,-0.428 -0.954,-1.046c0,-0.526 0.428,-0.954 0.954,-0.954h38.092c0.526,0 0.954,0.428 0.954,1.046c0,0.526 -0.428,0.954 -0.954,0.954zM47,28v2.042h-11.976c-1.093,0 -1.981,0.873 -2.017,1.958h-2.013c-0.034,-1.085 -0.921,-1.958 -2.014,-1.958h-11.98v-2.042zM35.024,32.042l7.976,0.024v1.904c0,1.67 -1.359,3.03 -3.03,3.03h-1.51c-1.908,0 -3.46,-1.552 -3.46,-3.46zM21.084,32.042l7.916,0.021v1.491c0,1.9 -1.546,3.446 -3.446,3.446h-1.474c-1.664,0 -3.017,-1.353 -3.017,-3.017zM12,37.5c0,-1.727 1.3,-3.156 3,-3.44v2.032c-0.157,-0.056 -0.324,-0.092 -0.5,-0.092c-0.828,0 -1.5,0.672 -1.5,1.5c0,0.828 0.672,1.5 1.5,1.5c0.176,0 0.343,-0.036 0.5,-0.092v2.032c-1.7,-0.284 -3,-1.713 -3,-3.44zM39,54.256c-0.639,0.339 -1.31,0.623 -2,0.868v-1.124h-2v1.698c-0.651,0.133 -1.322,0.207 -2,0.252v-2.95h-2v2.949c-0.678,-0.045 -1.349,-0.119 -2,-0.252v-1.697h-2v1.125c-0.69,-0.245 -1.361,-0.529 -2,-0.868v-7.223c0,-1.18 1.035,-2.14 2.307,-2.14h9.386c1.272,0 2.307,0.96 2.307,2.14zM41,52.971v-5.938c0,-2.283 -1.932,-4.14 -4.307,-4.14h-9.386c-2.375,0 -4.307,1.857 -4.307,4.14v5.938c-3.635,-2.74 -6,-7.079 -6,-11.971v-8.958h2.066c0,0.007 -0.002,0.013 -0.002,0.021v1.92c0,2.766 2.25,5.017 5.017,5.017h1.474c2.852,0 5.195,-2.205 5.423,-5h2.046c0.235,2.796 2.582,5 5.437,5h1.51c2.773,0 5.03,-2.256 5.03,-5.03v-1.904c0,-0.008 -0.002,-0.016 -0.002,-0.024h2.001v8.958c0,4.892 -2.365,9.232 -6,11.971zM49,40.94v-2.032c0.157,0.056 0.324,0.092 0.5,0.092c0.828,0 1.5,-0.672 1.5,-1.5c0,-0.828 -0.672,-1.5 -1.5,-1.5c-0.176,0 -0.343,0.036 -0.5,0.092v-2.032c1.7,0.284 3,1.713 3,3.44c0,1.727 -1.3,3.156 -3,3.44z" fill="url(#color-3)"></path></g></g></svg>